<svg width="32" height="32" viewBox="0 0 32 32" fill="none" xmlns="http://www.w3.org/2000/svg">
<path d="M16 32C24.8365 32 32 24.8366 32 16C32 7.16345 24.8365 0 16 0C7.16344 0 0 7.16345 0 16C0 24.8366 7.16344 32 16 32Z" fill="url(#paint0_linear_1684_25631)"/>
<path d="M16 32C24.8365 32 32 24.8366 32 16C32 7.16345 24.8365 0 16 0C7.16344 0 0 7.16345 0 16C0 24.8366 7.16344 32 16 32Z" fill="url(#paint1_linear_1684_25631)"/>
<path d="M12.5137 25.9921C12.5137 25.9921 15.4348 23.5357 19.4846 25.9921" stroke="#5B0600" stroke-width="2" stroke-miterlimit="10" stroke-linecap="round" stroke-linejoin="round"/>
<path d="M9.99181 20.6804C10.8351 20.6804 11.5188 19.5658 11.5188 18.1908C11.5188 16.8158 10.8351 15.7012 9.99181 15.7012C9.14849 15.7012 8.46484 16.8158 8.46484 18.1908C8.46484 19.5658 9.14849 20.6804 9.99181 20.6804Z" fill="black"/>
<path d="M8.09961 14.6387L11.9834 17.3275" stroke="black" stroke-width="2" stroke-miterlimit="10" stroke-linecap="round" stroke-linejoin="round"/>
<path d="M23.5364 18.1908C23.5364 19.5518 22.8725 20.6804 22.0094 20.6804C21.1795 20.6804 20.4824 19.5518 20.4824 18.1908C20.4824 16.8298 21.1463 15.7012 22.0094 15.7012C22.8393 15.7012 23.5364 16.8298 23.5364 18.1908Z" fill="black"/>
<path d="M23.4698 14.6387L19.5859 17.3275" stroke="black" stroke-width="2" stroke-miterlimit="10" stroke-linecap="round" stroke-linejoin="round"/>
<defs>
<linearGradient id="paint0_linear_1684_25631" x1="2.13872" y1="23.99" x2="29.8697" y2="7.97953" gradientUnits="userSpaceOnUse">
<stop stop-color="#EBB34D"/>
<stop offset="0.033108" stop-color="#ECB64D"/>
<stop offset="0.1781" stop-color="#EEC04F"/>
<stop offset="0.5514" stop-color="#F1CC51"/>
<stop offset="1" stop-color="#F3D652"/>
</linearGradient>
<linearGradient id="paint1_linear_1684_25631" x1="16.0042" y1="-0.0230705" x2="16.0042" y2="31.9926" gradientUnits="userSpaceOnUse">
<stop stop-color="#DD5F70"/>
<stop offset="0.1619" stop-color="#DD636F" stop-opacity="0.9684"/>
<stop offset="0.6863" stop-color="#EBAA5D" stop-opacity="0.3625"/>
<stop offset="1" stop-color="#F3D652" stop-opacity="0"/>
</linearGradient>
</defs>
</svg>
