<svg width="24" height="24" viewBox="0 0 24 24" fill="none" xmlns="http://www.w3.org/2000/svg">
<path d="M11.5 12H14.05C14.2813 10.8594 15.2906 10 16.5 10C17.8813 10 19 11.1187 19 12.5C19 13.8813 17.8813 15 16.5 15C15.2906 15 14.2813 14.1406 14.05 13H11.5C10.0875 13 8.825 12.3469 8 11.3281V15.05C9.14062 15.2813 10 16.2906 10 17.5C10 18.8813 8.88125 20 7.5 20C6.11937 20 5 18.8813 5 17.5C5 16.2906 5.85875 15.2813 7 15.05V8.95C5.85875 8.69062 5 7.70938 5 6.5C5 5.11937 6.11937 4 7.5 4C8.88125 4 10 5.11937 10 6.5C10 7.7 9.12812 8.70312 8.02781 8.94375C8.24687 10.6687 9.69062 12 11.5 12ZM7.5 8C8.32812 8 9 7.32812 9 6.5C9 5.67156 8.32812 5 7.5 5C6.67156 5 6 5.67156 6 6.5C6 7.32812 6.67156 8 7.5 8ZM15 12.5C15 13.3281 15.6719 14 16.5 14C17.3281 14 18 13.3281 18 12.5C18 11.6719 17.3281 11 16.5 11C15.6719 11 15 11.6719 15 12.5ZM7.5 19C8.32812 19 9 18.3281 9 17.5C9 16.6719 8.32812 16 7.5 16C6.67156 16 6 16.6719 6 17.5C6 18.3281 6.67156 19 7.5 19Z" fill="#908F9D" stroke="#908F9D" stroke-width="0.5"/>
</svg>
