<svg width="32" height="32" viewBox="0 0 32 32" fill="none" xmlns="http://www.w3.org/2000/svg">
<path d="M16 32C24.8366 32 32 24.8366 32 16C32 7.16344 24.8366 0 16 0C7.16344 0 0 7.16344 0 16C0 24.8366 7.16344 32 16 32Z" fill="url(#paint0_linear_1684_25620)"/>
<path d="M9.7926 12.9793C10.6359 12.9793 11.3196 11.8646 11.3196 10.4896C11.3196 9.11464 10.6359 8 9.7926 8C8.94928 8 8.26562 9.11464 8.26562 10.4896C8.26562 11.8646 8.94928 12.9793 9.7926 12.9793Z" fill="black"/>
<path d="M21.8082 12.9793C22.6515 12.9793 23.3352 11.8646 23.3352 10.4896C23.3352 9.11464 22.6515 8 21.8082 8C20.9649 8 20.2812 9.11464 20.2812 10.4896C20.2812 11.8646 20.9649 12.9793 21.8082 12.9793Z" fill="black"/>
<path d="M6.93699 17.1283C6.93699 17.1283 15.2026 15.7673 25.0615 17.1283C25.0615 17.1283 25.3602 25.1947 15.9992 25.1947C6.60504 25.1947 6.93699 17.1283 6.93699 17.1283Z" fill="#5B0600"/>
<defs>
<linearGradient id="paint0_linear_1684_25620" x1="2.13012" y1="24.0131" x2="29.8611" y2="8.00259" gradientUnits="userSpaceOnUse">
<stop stop-color="#EBB34D"/>
<stop offset="0.033108" stop-color="#ECB64D"/>
<stop offset="0.1781" stop-color="#EEC04F"/>
<stop offset="0.5514" stop-color="#F1CC51"/>
<stop offset="1" stop-color="#F3D652"/>
</linearGradient>
</defs>
</svg>
