<svg width="32" height="32" viewBox="0 0 32 32" fill="none" xmlns="http://www.w3.org/2000/svg">
<path d="M16 32C24.8366 32 32 24.8366 32 16C32 7.16344 24.8366 0 16 0C7.16345 0 0 7.16344 0 16C0 24.8366 7.16345 32 16 32Z" fill="url(#paint0_linear_1684_25614)"/>
<path d="M6.93858 17.1283C6.93858 17.1283 15.2041 15.7673 25.063 17.1283C25.063 17.1283 25.3618 25.1947 16.0008 25.1947C6.63982 25.1947 6.93858 17.1283 6.93858 17.1283Z" fill="#5B0600"/>
<path fill-rule="evenodd" clip-rule="evenodd" d="M10.4237 6.20838C9.52743 6.44074 8.86353 7.23742 8.76394 8.0673C8.26602 7.4034 7.30336 7.00506 6.40709 7.23742C5.27846 7.53618 4.61456 8.59842 4.91332 9.76025C5.31166 11.3204 7.33655 12.1503 10.2245 13.8764C11.9507 10.9553 13.3117 9.29552 12.9133 7.73535C12.6478 6.54033 11.5523 5.90962 10.4237 6.20838Z" fill="url(#paint1_linear_1684_25614)"/>
<path fill-rule="evenodd" clip-rule="evenodd" d="M21.3778 6.20853C20.2492 5.90978 19.1537 6.54048 18.855 7.70231C18.4566 9.26247 19.8176 10.9554 21.5438 13.8434C24.4649 12.1172 26.4566 11.2874 26.855 9.7272C27.1537 8.56538 26.4898 7.50314 25.3612 7.20438C24.4649 6.97202 23.5023 7.33716 23.0043 8.03426C22.938 7.23758 22.2741 6.4409 21.3778 6.20853Z" fill="url(#paint2_linear_1684_25614)"/>
<defs>
<linearGradient id="paint0_linear_1684_25614" x1="2.1442" y1="24.0131" x2="29.8752" y2="8.00258" gradientUnits="userSpaceOnUse">
<stop stop-color="#EBB34D"/>
<stop offset="0.033108" stop-color="#ECB64D"/>
<stop offset="0.1781" stop-color="#EEC04F"/>
<stop offset="0.5514" stop-color="#F1CC51"/>
<stop offset="1" stop-color="#F3D652"/>
</linearGradient>
<linearGradient id="paint1_linear_1684_25614" x1="5.31836" y1="11.3169" x2="13.3451" y2="9.26113" gradientUnits="userSpaceOnUse">
<stop offset="0.00411293" stop-color="#D2254D"/>
<stop offset="1" stop-color="#D65C4E"/>
</linearGradient>
<linearGradient id="paint2_linear_1684_25614" x1="26.4952" y1="11.3171" x2="18.4684" y2="9.26126" gradientUnits="userSpaceOnUse">
<stop offset="0.00411293" stop-color="#D2254D"/>
<stop offset="1" stop-color="#D65C4E"/>
</linearGradient>
</defs>
</svg>
