<svg width="16" height="16" viewBox="0 0 16 16" fill="none" xmlns="http://www.w3.org/2000/svg">
<path d="M8 16C12.4183 16 16 12.4183 16 8C16 3.58172 12.4183 0 8 0C3.58172 0 0 3.58172 0 8C0 12.4183 3.58172 16 8 16Z" fill="url(#paint0_linear_1684_26378)"/>
<path d="M4.8963 6.48963C5.31796 6.48963 5.65979 5.9323 5.65979 5.24481C5.65979 4.55732 5.31796 4 4.8963 4C4.47464 4 4.13281 4.55732 4.13281 5.24481C4.13281 5.9323 4.47464 6.48963 4.8963 6.48963Z" fill="black"/>
<path d="M10.9041 6.48963C11.3258 6.48963 11.6676 5.9323 11.6676 5.24481C11.6676 4.55732 11.3258 4 10.9041 4C10.4824 4 10.1406 4.55732 10.1406 5.24481C10.1406 5.9323 10.4824 6.48963 10.9041 6.48963Z" fill="black"/>
<path d="M3.46947 8.56416C3.46947 8.56416 7.60225 7.88366 12.5317 8.56416C12.5317 8.56416 12.6811 12.5974 8.00059 12.5974C3.3035 12.5974 3.46947 8.56416 3.46947 8.56416Z" fill="#5B0600"/>
<defs>
<linearGradient id="paint0_linear_1684_26378" x1="1.0721" y1="12.0066" x2="14.9376" y2="4.00129" gradientUnits="userSpaceOnUse">
<stop stop-color="#EBB34D"/>
<stop offset="0.033108" stop-color="#ECB64D"/>
<stop offset="0.1781" stop-color="#EEC04F"/>
<stop offset="0.5514" stop-color="#F1CC51"/>
<stop offset="1" stop-color="#F3D652"/>
</linearGradient>
</defs>
</svg>
