<svg width="40" height="40" viewBox="0 0 40 40" fill="none" xmlns="http://www.w3.org/2000/svg">
<path d="M22.6003 4L33.0003 14.667V32.267C33.0126 33.2447 32.636 34.1872 31.9534 34.8873C31.2707 35.5874 30.338 35.9876 29.3603 36H10.6403C9.66259 35.9876 8.72984 35.5874 8.04722 34.8873C7.3646 34.1872 6.98801 33.2447 7.00029 32.267V7.733C6.98801 6.7553 7.3646 5.81275 8.04722 5.11269C8.72984 4.41263 9.66259 4.01239 10.6403 4H22.6003Z" fill="#34B057"/>
<g opacity="0.29">
<path d="M32.9996 14.67H26.4236C25.408 14.6221 24.4484 14.1906 23.7386 13.4626C23.0289 12.7347 22.6218 11.7645 22.5996 10.748V4L32.9996 14.67Z" fill="white"/>
</g>
<path d="M20.4373 20.643L22.5283 17.043H24.5283L21.5213 21.978L24.5933 27H22.5763L20.4373 23.35L18.2903 27H16.2803L19.3633 21.982L16.3493 17.047H18.3493L20.4373 20.643Z" fill="white"/>
</svg>
