<svg width="17" height="14" viewBox="0 0 17 14" fill="none" xmlns="http://www.w3.org/2000/svg">
<path d="M2.33333 4.49922H9V1.51089C9.00004 1.3461 9.04893 1.18502 9.1405 1.04801C9.23207 0.911 9.3622 0.804217 9.51445 0.741159C9.6667 0.6781 9.83423 0.661598 9.99586 0.693737C10.1575 0.725877 10.306 0.805216 10.4225 0.921723L15.9108 6.41006C16.0671 6.56633 16.1548 6.77825 16.1548 6.99922C16.1548 7.22019 16.0671 7.43212 15.9108 7.58839L10.4225 13.0767C10.306 13.1932 10.1575 13.2726 9.99586 13.3047C9.83423 13.3368 9.6667 13.3203 9.51445 13.2573C9.3622 13.1942 9.23207 13.0874 9.1405 12.9504C9.04893 12.8134 9.00004 12.6523 9 12.4876V9.49922H2.33333C2.11232 9.49922 1.90036 9.41143 1.74408 9.25515C1.5878 9.09887 1.5 8.8869 1.5 8.66589V5.33256C1.5 5.11154 1.5878 4.89958 1.74408 4.7433C1.90036 4.58702 2.11232 4.49922 2.33333 4.49922V4.49922Z" stroke="#5F647E" stroke-width="1.25" stroke-linecap="round" stroke-linejoin="round"/>
</svg>
